<?xml version="1.0" encoding="utf-8"?>
<!-- Generator: Adobe Illustrator 17.1.0, SVG Export Plug-In . SVG Version: 6.00 Build 0)  -->
<!DOCTYPE svg PUBLIC "-//W3C//DTD SVG 1.1//EN" "http://www.w3.org/Graphics/SVG/1.1/DTD/svg11.dtd">
<svg version="1.1" id="Capa_1" xmlns="http://www.w3.org/2000/svg" xmlns:xlink="http://www.w3.org/1999/xlink" x="0px" y="0px"
	 viewBox="0 0 43 31.5" enable-background="new 0 0 43 31.5" xml:space="preserve">
<circle fill="none" stroke="#231F20" stroke-miterlimit="10" cx="7.5" cy="23.7" r="7"/>
<circle fill="none" stroke="#231F20" stroke-miterlimit="10" cx="30.1" cy="18.6" r="12.4"/>
<circle fill="none" stroke="#231F20" stroke-miterlimit="10" cx="7.3" cy="23.8" r="0.9"/>
<circle fill="none" stroke="#231F20" stroke-miterlimit="10" cx="30.1" cy="19" r="0.9"/>
<line fill="none" stroke="#231F20" stroke-miterlimit="10" x1="30.1" y1="18.6" x2="30.1" y2="2.6"/>
<path fill="none" stroke="#231F20" stroke-miterlimit="10" d="M29.9,4.2c0,0-21.7-0.4-22.6,17.7"/>
<path fill="none" stroke="#231F20" stroke-miterlimit="10" d="M30.3,0.5c0,0,5.1,0.2,1.7,3.6"/>
<line fill="none" stroke="#231F20" stroke-miterlimit="10" x1="30.1" y1="3.4" x2="30.1" y2="0"/>
<line fill="none" stroke="#231F20" stroke-miterlimit="10" x1="7.3" y1="21.7" x2="7.3" y2="23.6"/>
<line fill="none" stroke="#231F20" stroke-miterlimit="10" x1="22.9" y1="4.9" x2="22.9" y2="3.3"/>
<path fill="#231F20" d="M24.5,2.7c0,0.4-0.3,0.6-0.6,0.6h-3c-0.4,0-0.6-0.3-0.6-0.6l0,0c0-0.4,0.3-0.6,0.6-0.6h3
	C24.2,2,24.5,2.3,24.5,2.7L24.5,2.7z"/>
<path fill="#231F20" d="M20.3,15.6l0.9,0c0.6-3.1,3.1-5.5,6.3-6l0-0.9C23.8,9.2,21,12,20.3,15.6z"/>
<path fill="#231F20" d="M2.3,22.2l0.5,0c0.3-1.7,1.7-3,3.4-3.2l0-0.5C4.2,18.7,2.6,20.3,2.3,22.2z"/>
<path fill="none" stroke="#231F20" stroke-miterlimit="10" d="M23.5,5c0,0-7.1,2.5-7.4,7"/>
</svg>
